<svg xmlns="http://www.w3.org/2000/svg" viewBox="0 0 634 720">
  <g transform="translate(0, 710) scale(1, -1)">
    <path d="M374 -12Q318 -12 276.5 12.0Q235 36 212 79L209 0H66V710H216V460Q237 497 278.0 522.5Q319 548 374 548Q442 548 492.0 513.5Q542 479 569.5 416.0Q597 353 597 268Q597 183 569.5 120.0Q542 57 492.0 22.5Q442 -12 374 -12ZM332 103Q382 103 412.5 146.5Q443 190 443 268Q443 346 413.0 389.5Q383 433 333 433Q296 433 269.5 413.5Q243 394 229.5 357.0Q216 320 216 268Q216 217 229.5 180.0Q243 143 269.5 123.0Q296 103 332 103Z" fill="currentColor"/>
  </g>
</svg>
