<?xml version="1.0" encoding="UTF-8"?>
<svg id="Capa_2" data-name="Capa 2" xmlns="http://www.w3.org/2000/svg" viewBox="0 0 1684.09 1891.95">
  <defs>
    <style>
      .cls-1 {
        fill: #1d1d1b;
      }
    </style>
  </defs>
  <g id="Capa_1-2" data-name="Capa 1">
    <g>
      <path class="cls-1" d="M45.33,335.53l538.65,171.72c45.38,14.47,93.89-10.68,108.23-56.1l127.14-402.85c5.66-17.92,15.48-31.71,27.64-41.55-48.49-4.48-98.99-6.74-151.5-6.74H0v333.08c13.92-3.1,29.26-2.68,45.33,2.44Z"/>
      <path class="cls-1" d="M986.7,62.49l76.16,554.72c6.47,47.16,50,80.11,97.14,73.54l484.69-67.49c-40.67-151.34-112.81-276.94-216.43-376.79-117.22-112.94-269.28-187.07-456.18-222.39,7.35,10.57,12.55,23.38,14.61,38.4Z"/>
      <path class="cls-1" d="M328.42,864.56L0,521.91v997.09l339.51-549.65c20.62-33.38,16.06-76.47-11.09-104.79Z"/>
      <path class="cls-1" d="M780.99,1482.33c-24.23-16.89-55.43-20.17-82.64-8.7L40.28,1751.03c-13.76,5.8-27.4,7.83-40.28,6.86v134.06h711.48c200.64,0,371.45-33.65,512.46-100.95l-442.96-308.67Z"/>
      <path class="cls-1" d="M1304.02,1067.65c-32.09,22.13-45.3,63.07-32.2,99.78l168.29,471.63c162.65-163.01,243.99-393.16,243.99-690.42,0-47.97-2.13-94.2-6.39-138.7l-373.69,257.7Z"/>
    </g>
  </g>
</svg>
