<?xml version="1.0" encoding="UTF-8"?>
<svg xmlns="http://www.w3.org/2000/svg" version="1.1" viewBox="0 0 1000 992.65">
  <!-- Generator: Adobe Illustrator 30.0.0, SVG Export Plug-In . SVG Version: 2.1.1 Build 123)  -->
  <defs>
    <style>
      .st0 {
        fill: none;
        stroke: #36a9e1;
        stroke-miterlimit: 10;
      }

      .st1 {
        display: none;
      }
    </style>
  </defs>
  <g id="Capa_3">
    <g id="Capa_1-2">
      <path d="M637.97,471.36v119.6l136.71.46c-54.2,64.48-88.27,108.97-145.5,158.06-57.78,49.56-134.04,72.71-209.85,65.77-83.51-7.65-176.55-53.14-225.17-195.02-32.39-94.51-26.17-226.09,15.59-316.84,43.67-94.91,124.3-164.32,248.69-164.32,113.17,0,237.89,63.35,256.54,189.85h159.04C847.4,111.87,671.01,4.24,467.29,4.24c-33.7,0-141.58.29-242.3,61.37C73.77,157.32,3.67,321.87,4.07,501.22c-1.59,222.75,103.98,487.04,442.91,487.19,244.02.1,348.49-183.83,427.05-297.65l.31,138.58h121.61v-357.97h-357.98Z"/>
    </g>
  </g>
  <g id="Capa_2" class="st1">
    <line class="st0" x1="1000.01" y1="472.07" x2="0" y2="472.07"/>
    <line class="st0" x1="1001.2" y1="592.05" x2="1.18" y2="592.05"/>
    <line class="st0" x1="640.19" y1="998.06" x2="640.19" y2="-1.96"/>
    <line class="st0" x1="777.28" y1="996.78" x2="777.28" y2="-3.22"/>
    <line class="st0" x1="877.28" y1="995.86" x2="877.28" y2="-4.14"/>
    <line class="st0" x1="717.19" y1="994.34" x2="717.19" y2="-5.68"/>
    <line class="st0" x1="1001.2" y1="832.39" x2="1.18" y2="832.39"/>
    <circle class="st0" cx="877.28" cy="592.05" r="100"/>
    <line class="st0" x1="1001.2" y1="327.81" x2="1.18" y2="327.81"/>
  </g>
</svg>